<svg xmlns="http://www.w3.org/2000/svg" width="20" height="20" fill="currentColor" aria-hidden="true" viewBox="0 0 24 24"><path fill-rule="evenodd" d="M12 .5C5.73.5.5 5.73.5 12c0 5.08 3.29 9.38 7.86 10.9.57.1.78-.25.78-.55 0-.27-.01-1.17-.02-2.12-3.2.69-3.88-1.54-3.88-1.54-.52-1.32-1.28-1.67-1.28-1.67-1.05-.72.08-.7.08-.7 1.16.08 1.77 1.19 1.77 1.19 1.03 1.77 2.71 1.26 3.37.96.1-.75.4-1.26.72-1.55-2.55-.29-5.24-1.28-5.24-5.72 0-1.26.45-2.28 1.19-3.08-.12-.29-.52-1.46.11-3.04 0 0 .97-.31 3.18 1.18a11 11 0 0 1 2.9-.39c.98.01 1.97.13 2.9.39 2.2-1.49 3.17-1.18 3.17-1.18.64 1.58.24 2.75.12 3.04.74.8 1.19 1.82 1.19 3.08 0 4.45-2.7 5.43-5.27 5.71.41.35.78 1.04.78 2.1 0 1.52-.01 2.75-.01 3.12 0 .3.21.66.79.55 5-1.3 8.29-5.6 8.29-10.68C24 5.73 18.77.5 12 .5" clip-rule="evenodd"/></svg>